# xmcd
#
# Track frame offsets: 
#        150
#        18984
#        36238
#        61905
#        82896
#        100121
#        125008
#        146224
#        178450
#        196602
#        213502
#
# Disc length: 3208 seconds
#
# Revision: 0
# Processed by: cddbd v1.5.2PL0 Copyright (c) Steve Scherf et al.
# Submitted via: ExactAudioCopyFreeDBPlugin 1.0
#
DISCID=9a0c860b
DTITLE=Bad Penny - Return to the G-Man
DYEAR=2016
DGENRE=Blues
TTITLE0=Continental Op
TTITLE1=Overnight Bag
TTITLE2=Bad Penny [feat. DJ Rock]
TTITLE3=The King of Zydeco
TTITLE4=Philby
TTITLE5=Walk on Hot Coals
TTITLE6=Rarley And Grape Rag
TTITLE7=A Million Miles Away
TTITLE8=Hands Off
TTITLE9=At the Bottom
TTITLE10=Easy Come Easy Go
EXTD=
EXTT0=
EXTT1=
EXTT2=
EXTT3=
EXTT4=
EXTT5=
EXTT6=
EXTT7=
EXTT8=
EXTT9=
EXTT10=
PLAYORDER=
